
<global>
amp_veltrack=0
ampeg_attack=0.02
ampeg_release=0.55
</global>

<group>
group_label=RR1_0-64
seq_length=4
xfin_hicc1=64
xfout_hicc1=127
xfout_locc1=64

<region>
hikey=E5
hivel=127
lokey=A#4
lovel=1
offset=341
pitch_keycenter=A#4
sample=Tenors_Ah_staccatissimo_PP_A#4_RR1.opus
</region>

<region>
hivel=127
key=A4
lovel=1
sample=Tenors_Ah_staccatissimo_PP_A4_RR1.opus
</region>

<region>
hivel=127
key=D#4
lovel=1
sample=Tenors_Ah_staccatissimo_PP_D#4_RR1.opus
</region>

<region>
hivel=127
key=D4
lovel=1
sample=Tenors_Ah_staccatissimo_PP_D4_RR1.opus
</region>

<region>
hivel=127
key=E4
lovel=1
sample=Tenors_Ah_staccatissimo_PP_E4_RR1.opus
</region>

<region>
hivel=127
key=F#4
lovel=1
sample=Tenors_Ah_staccatissimo_PP_F#4_RR1.opus
</region>

<region>
hivel=127
key=F4
lovel=1
sample=Tenors_Ah_staccatissimo_PP_F4_RR1.opus
</region>

<region>
hivel=127
key=G#4
lovel=1
sample=Tenors_Ah_staccatissimo_PP_G#4_RR1.opus
</region>

<region>
hivel=127
key=G4
lovel=1
sample=Tenors_Ah_staccatissimo_PP_G4_RR1.opus
</region>

<region>
hivel=127
key=A#3
lovel=1
offset=223
sample=Tenors_Ah_staccatissimo_PP_A#3_RR1.opus
</region>

<region>
hivel=127
key=A3
lovel=1
offset=440
sample=Tenors_Ah_staccatissimo_PP_A3_RR1.opus
</region>

<region>
hivel=127
key=B3
lovel=1
offset=11
sample=Tenors_Ah_staccatissimo_PP_B3_RR1.opus
</region>

<region>
hivel=127
key=C#4
lovel=1
sample=Tenors_Ah_staccatissimo_PP_C#4_RR1.opus
</region>

<region>
hikey=C4
hivel=127
lokey=C4
lovel=1
offset=721
sample=Tenors_Ah_staccatissimo_PP_C4_RR1.opus
</region>

<region>
hivel=127
key=E3
lovel=1
offset=550
sample=Tenors_Ah_staccatissimo_PP_E3_RR1.opus
</region>

<region>
hivel=127
key=F#3
lovel=1
offset=221
sample=Tenors_Ah_staccatissimo_PP_F#3_RR1.opus
</region>

<region>
hivel=127
key=F3
lovel=1
offset=1818
sample=Tenors_Ah_staccatissimo_PP_F3_RR1.opus
</region>

<region>
hivel=127
key=G#3
lovel=1
offset=237
sample=Tenors_Ah_staccatissimo_PP_G#3_RR1.opus
</region>

<region>
hivel=127
key=G3
lovel=1
offset=374
sample=Tenors_Ah_staccatissimo_PP_G3_RR1.opus
</region>

<region>
hivel=127
key=C#3
lovel=1
offset=3898
sample=Tenors_Ah_staccatissimo_PP_C#3_RR1.opus
</region>

<region>
hikey=C3
hivel=127
lokey=F2
lovel=1
offset=148
pitch_keycenter=C3
sample=Tenors_Ah_staccatissimo_PP_C3_RR1.opus
</region>

<region>
hivel=127
key=D#3
lovel=1
offset=3669
sample=Tenors_Ah_staccatissimo_PP_D#3_RR1.opus
</region>

<region>
hivel=127
key=D3
lovel=1
offset=1438
sample=Tenors_Ah_staccatissimo_PP_D3_RR1.opus
</region>
</group>

<group>
group_label=RR2_0-64
seq_length=4
seq_position=2
xfin_hicc1=64
xfout_hicc1=127
xfout_locc1=64

<region>
hikey=E5
hivel=127
lokey=A#4
lovel=1
pitch_keycenter=A#4
sample=Tenors_Ah_staccatissimo_PP_A#4_RR2.opus
</region>

<region>
hivel=127
key=A4
lovel=1
sample=Tenors_Ah_staccatissimo_PP_A4_RR2.opus
</region>

<region>
hivel=127
key=D#4
lovel=1
sample=Tenors_Ah_staccatissimo_PP_D#4_RR2.opus
</region>

<region>
hivel=127
key=D4
lovel=1
sample=Tenors_Ah_staccatissimo_PP_D4_RR2.opus
</region>

<region>
hivel=127
key=E4
lovel=1
sample=Tenors_Ah_staccatissimo_PP_E4_RR2.opus
</region>

<region>
hivel=127
key=F#4
lovel=1
sample=Tenors_Ah_staccatissimo_PP_F#4_RR2.opus
</region>

<region>
hivel=127
key=F4
lovel=1
sample=Tenors_Ah_staccatissimo_PP_F4_RR2.opus
</region>

<region>
hivel=127
key=G#4
lovel=1
sample=Tenors_Ah_staccatissimo_PP_G#4_RR2.opus
</region>

<region>
hivel=127
key=G4
lovel=1
sample=Tenors_Ah_staccatissimo_PP_G4_RR2.opus
</region>

<region>
hivel=127
key=A#3
lovel=1
offset=443
sample=Tenors_Ah_staccatissimo_PP_A#3_RR2.opus
</region>

<region>
hivel=127
key=A3
lovel=1
offset=911
sample=Tenors_Ah_staccatissimo_PP_A3_RR2.opus
</region>

<region>
hivel=127
key=B3
lovel=1
sample=Tenors_Ah_staccatissimo_PP_B3_RR2.opus
</region>

<region>
hivel=127
key=C#4
lovel=1
sample=Tenors_Ah_staccatissimo_PP_C#4_RR2.opus
</region>

<region>
hikey=C4
hivel=127
lokey=C4
lovel=1
sample=Tenors_Ah_staccatissimo_PP_C4_RR2.opus
</region>

<region>
hivel=127
key=E3
lovel=1
offset=61
sample=Tenors_Ah_staccatissimo_PP_E3_RR2.opus
</region>

<region>
hivel=127
key=F#3
lovel=1
offset=2428
sample=Tenors_Ah_staccatissimo_PP_F#3_RR2.opus
</region>

<region>
hivel=127
key=F3
lovel=1
offset=2899
sample=Tenors_Ah_staccatissimo_PP_F3_RR2.opus
</region>

<region>
hivel=127
key=G#3
lovel=1
offset=263
sample=Tenors_Ah_staccatissimo_PP_G#3_RR2.opus
</region>

<region>
hivel=127
key=G3
lovel=1
offset=259
sample=Tenors_Ah_staccatissimo_PP_G3_RR2.opus
</region>

<region>
hivel=127
key=C#3
lovel=1
offset=491
sample=Tenors_Ah_staccatissimo_PP_C#3_RR2.opus
</region>

<region>
hikey=C3
hivel=127
lokey=F2
lovel=1
offset=964
pitch_keycenter=C3
sample=Tenors_Ah_staccatissimo_PP_C3_RR2.opus
</region>

<region>
hivel=127
key=D#3
lovel=1
offset=2071
sample=Tenors_Ah_staccatissimo_PP_D#3_RR2.opus
</region>

<region>
hivel=127
key=D3
lovel=1
offset=2672
sample=Tenors_Ah_staccatissimo_PP_D3_RR2.opus
</region>
</group>

<group>
group_label=RR3_0-64
seq_length=4
seq_position=3
xfin_hicc1=64
xfout_hicc1=127
xfout_locc1=64

<region>
hikey=E5
hivel=127
lokey=A#4
lovel=1
pitch_keycenter=A#4
sample=Tenors_Ah_staccatissimo_PP_A#4_RR3.opus
</region>

<region>
hivel=127
key=A4
lovel=1
sample=Tenors_Ah_staccatissimo_PP_A4_RR3.opus
</region>

<region>
hivel=127
key=D#4
lovel=1
sample=Tenors_Ah_staccatissimo_PP_D#4_RR3.opus
</region>

<region>
hivel=127
key=D4
lovel=1
sample=Tenors_Ah_staccatissimo_PP_D4_RR3.opus
</region>

<region>
hivel=127
key=E4
lovel=1
sample=Tenors_Ah_staccatissimo_PP_E4_RR3.opus
</region>

<region>
hivel=127
key=F#4
lovel=1
sample=Tenors_Ah_staccatissimo_PP_F#4_RR3.opus
</region>

<region>
hivel=127
key=F4
lovel=1
sample=Tenors_Ah_staccatissimo_PP_F4_RR3.opus
</region>

<region>
hivel=127
key=G#4
lovel=1
sample=Tenors_Ah_staccatissimo_PP_G#4_RR3.opus
</region>

<region>
hivel=127
key=G4
lovel=1
sample=Tenors_Ah_staccatissimo_PP_G4_RR3.opus
</region>

<region>
hivel=127
key=A#3
lovel=1
offset=1883
sample=Tenors_Ah_staccatissimo_PP_A#3_RR3.opus
</region>

<region>
hivel=127
key=A3
lovel=1
offset=33
sample=Tenors_Ah_staccatissimo_PP_A3_RR3.opus
</region>

<region>
hivel=127
key=B3
lovel=1
sample=Tenors_Ah_staccatissimo_PP_B3_RR3.opus
</region>

<region>
hivel=127
key=C#4
lovel=1
sample=Tenors_Ah_staccatissimo_PP_C#4_RR3.opus
</region>

<region>
hikey=C4
hivel=127
lokey=C4
lovel=1
sample=Tenors_Ah_staccatissimo_PP_C4_RR3.opus
</region>

<region>
hivel=127
key=E3
lovel=1
sample=Tenors_Ah_staccatissimo_PP_E3_RR3.opus
</region>

<region>
hivel=127
key=F#3
lovel=1
offset=877
sample=Tenors_Ah_staccatissimo_PP_F#3_RR3.opus
</region>

<region>
hivel=127
key=F3
lovel=1
sample=Tenors_Ah_staccatissimo_PP_F3_RR3.opus
</region>

<region>
hivel=127
key=G#3
lovel=1
offset=10
sample=Tenors_Ah_staccatissimo_PP_G#3_RR3.opus
</region>

<region>
hivel=127
key=G3
lovel=1
offset=688
sample=Tenors_Ah_staccatissimo_PP_G3_RR3.opus
</region>

<region>
hivel=127
key=C#3
lovel=1
offset=1032
sample=Tenors_Ah_staccatissimo_PP_C#3_RR3.opus
</region>

<region>
hikey=C3
hivel=127
lokey=F2
lovel=1
offset=143
pitch_keycenter=C3
sample=Tenors_Ah_staccatissimo_PP_C3_RR3.opus
</region>

<region>
hivel=127
key=D#3
lovel=1
offset=1305
sample=Tenors_Ah_staccatissimo_PP_D#3_RR3.opus
</region>

<region>
hivel=127
key=D3
lovel=1
offset=124
sample=Tenors_Ah_staccatissimo_PP_D3_RR3.opus
</region>
</group>

<group>
group_label=RR4_0-64
seq_length=4
seq_position=4
xfin_hicc1=64
xfout_hicc1=127
xfout_locc1=64

<region>
hikey=E5
hivel=127
lokey=A#4
lovel=1
pitch_keycenter=A#4
sample=Tenors_Ah_staccatissimo_PP_A#4_RR4.opus
</region>

<region>
hivel=127
key=A4
lovel=1
sample=Tenors_Ah_staccatissimo_PP_A4_RR4.opus
</region>

<region>
hivel=127
key=D#4
lovel=1
sample=Tenors_Ah_staccatissimo_PP_D#4_RR4.opus
</region>

<region>
hivel=127
key=D4
lovel=1
sample=Tenors_Ah_staccatissimo_PP_D4_RR4.opus
</region>

<region>
hivel=127
key=E4
lovel=1
sample=Tenors_Ah_staccatissimo_PP_E4_RR4.opus
</region>

<region>
hivel=127
key=F#4
lovel=1
sample=Tenors_Ah_staccatissimo_PP_F#4_RR4.opus
</region>

<region>
hivel=127
key=F4
lovel=1
sample=Tenors_Ah_staccatissimo_PP_F4_RR4.opus
</region>

<region>
hivel=127
key=G#4
lovel=1
sample=Tenors_Ah_staccatissimo_PP_G#4_RR4.opus
</region>

<region>
hivel=127
key=G4
lovel=1
sample=Tenors_Ah_staccatissimo_PP_G4_RR4.opus
</region>

<region>
hivel=127
key=A#3
lovel=1
offset=1753
sample=Tenors_Ah_staccatissimo_PP_A#3_RR4.opus
</region>

<region>
hivel=127
key=A3
lovel=1
offset=866
sample=Tenors_Ah_staccatissimo_PP_A3_RR4.opus
</region>

<region>
hivel=127
key=B3
lovel=1
offset=647
sample=Tenors_Ah_staccatissimo_PP_B3_RR4.opus
</region>

<region>
hivel=127
key=C#4
lovel=1
sample=Tenors_Ah_staccatissimo_PP_C#4_RR4.opus
</region>

<region>
hikey=C4
hivel=127
lokey=C4
lovel=1
sample=Tenors_Ah_staccatissimo_PP_C4_RR4.opus
</region>

<region>
hivel=127
key=E3
lovel=1
sample=Tenors_Ah_staccatissimo_PP_E3_RR4.opus
</region>

<region>
hivel=127
key=F#3
lovel=1
sample=Tenors_Ah_staccatissimo_PP_F#3_RR4.opus
</region>

<region>
hivel=127
key=F3
lovel=1
offset=2433
sample=Tenors_Ah_staccatissimo_PP_F3_RR4.opus
</region>

<region>
hivel=127
key=G#3
lovel=1
offset=203
sample=Tenors_Ah_staccatissimo_PP_G#3_RR4.opus
</region>

<region>
hivel=127
key=G3
lovel=1
offset=402
sample=Tenors_Ah_staccatissimo_PP_G3_RR4.opus
</region>

<region>
hivel=127
key=C#3
lovel=1
offset=883
sample=Tenors_Ah_staccatissimo_PP_C#3_RR4.opus
</region>

<region>
hikey=C3
hivel=127
lokey=F2
lovel=1
offset=671
pitch_keycenter=C3
sample=Tenors_Ah_staccatissimo_PP_C3_RR4.opus
</region>

<region>
hivel=127
key=D#3
lovel=1
offset=208
sample=Tenors_Ah_staccatissimo_PP_D#3_RR4.opus
</region>

<region>
hivel=127
key=D3
lovel=1
offset=293
sample=Tenors_Ah_staccatissimo_PP_D3_RR4.opus
</region>
</group>

<group>
group_label=RR1_65-127
seq_length=4
xfin_hicc1=127
xfin_locc1=65
xfout_hicc1=127
xfout_locc1=127

<region>
hivel=127
key=A#3
lovel=1
sample=Tenors_Ah_staccatissimo_FF_A#3_RR1.opus
</region>

<region>
hikey=E5
hivel=127
lokey=A#4
lovel=1
offset=2476
pitch_keycenter=A#4
sample=Tenors_Ah_staccatissimo_FF_A#4_RR1.opus
</region>

<region>
hivel=127
key=A3
lovel=1
offset=2061
sample=Tenors_Ah_staccatissimo_FF_A3_RR1.opus
</region>

<region>
hivel=127
key=A4
lovel=1
offset=3342
sample=Tenors_Ah_staccatissimo_FF_A4_RR1.opus
</region>

<region>
hivel=127
key=B3
lovel=1
sample=Tenors_Ah_staccatissimo_FF_B3_RR1.opus
</region>

<region>
hivel=127
key=C#4
lovel=1
offset=1388
sample=Tenors_Ah_staccatissimo_FF_C#4_RR1.opus
</region>

<region>
hikey=C4
hivel=127
lokey=C4
lovel=1
offset=3074
sample=Tenors_Ah_staccatissimo_FF_C4_RR1.opus
</region>

<region>
hivel=127
key=D#3
lovel=1
offset=5367
sample=Tenors_Ah_staccatissimo_FF_D#3_RR1.opus
</region>

<region>
hivel=127
key=D#4
lovel=1
offset=3883
sample=Tenors_Ah_staccatissimo_FF_D#4_RR1.opus
</region>

<region>
hivel=127
key=D3
lovel=1
offset=360
sample=Tenors_Ah_staccatissimo_FF_D3_RR1.opus
</region>

<region>
hivel=127
key=D4
lovel=1
sample=Tenors_Ah_staccatissimo_FF_D4_RR1.opus
</region>

<region>
hivel=127
key=E3
lovel=1
sample=Tenors_Ah_staccatissimo_FF_E3_RR1.opus
</region>

<region>
hivel=127
key=E4
lovel=1
offset=1297
sample=Tenors_Ah_staccatissimo_FF_E4_RR1.opus
</region>

<region>
hivel=127
key=F#3
lovel=1
sample=Tenors_Ah_staccatissimo_FF_F#3_RR1.opus
</region>

<region>
hivel=127
key=F#4
lovel=1
offset=738
sample=Tenors_Ah_staccatissimo_FF_F#4_RR1.opus
</region>

<region>
hivel=127
key=F3
lovel=1
offset=938
sample=Tenors_Ah_staccatissimo_FF_F3_RR1.opus
</region>

<region>
hivel=127
key=F4
lovel=1
offset=6090
sample=Tenors_Ah_staccatissimo_FF_F4_RR1.opus
</region>

<region>
hivel=127
key=G#3
lovel=1
offset=689
sample=Tenors_Ah_staccatissimo_FF_G#3_RR1.opus
</region>

<region>
hivel=127
key=G#4
lovel=1
offset=1644
sample=Tenors_Ah_staccatissimo_FF_G#4_RR1.opus
</region>

<region>
hivel=127
key=G3
lovel=1
sample=Tenors_Ah_staccatissimo_FF_G3_RR1.opus
</region>

<region>
hivel=127
key=G4
lovel=1
sample=Tenors_Ah_staccatissimo_FF_G4_RR1.opus
</region>

<region>
hivel=127
key=C#3
lovel=1
offset=4876
sample=Tenors_Ah_staccatissimo_FF_C#3_RR1.opus
</region>

<region>
hikey=C3
hivel=127
lokey=F2
lovel=1
offset=364
pitch_keycenter=C3
sample=Tenors_Ah_staccatissimo_FF_C3_RR1.opus
</region>
</group>

<group>
group_label=RR2_65-127
seq_length=4
seq_position=2
xfin_hicc1=127
xfin_locc1=65
xfout_hicc1=127
xfout_locc1=127

<region>
hivel=127
key=A#3
lovel=1
offset=434
sample=Tenors_Ah_staccatissimo_FF_A#3_RR2.opus
</region>

<region>
hikey=E5
hivel=127
lokey=A#4
lovel=1
pitch_keycenter=A#4
sample=Tenors_Ah_staccatissimo_FF_A#4_RR2.opus
</region>

<region>
hivel=127
key=A3
lovel=1
sample=Tenors_Ah_staccatissimo_FF_A3_RR2.opus
</region>

<region>
hivel=127
key=A4
lovel=1
offset=411
sample=Tenors_Ah_staccatissimo_FF_A4_RR2.opus
</region>

<region>
hivel=127
key=B3
lovel=1
offset=726
sample=Tenors_Ah_staccatissimo_FF_B3_RR2.opus
</region>

<region>
hivel=127
key=C#4
lovel=1
offset=558
sample=Tenors_Ah_staccatissimo_FF_C#4_RR2.opus
</region>

<region>
hikey=C4
hivel=127
lokey=C4
lovel=1
offset=552
sample=Tenors_Ah_staccatissimo_FF_C4_RR2.opus
</region>

<region>
hivel=127
key=D#3
lovel=1
offset=796
sample=Tenors_Ah_staccatissimo_FF_D#3_RR2.opus
</region>

<region>
hivel=127
key=D#4
lovel=1
offset=317
sample=Tenors_Ah_staccatissimo_FF_D#4_RR2.opus
</region>

<region>
hivel=127
key=D3
lovel=1
offset=240
sample=Tenors_Ah_staccatissimo_FF_D3_RR2.opus
</region>

<region>
hivel=127
key=D4
lovel=1
sample=Tenors_Ah_staccatissimo_FF_D4_RR2.opus
</region>

<region>
hivel=127
key=E3
lovel=1
offset=742
sample=Tenors_Ah_staccatissimo_FF_E3_RR2.opus
</region>

<region>
hivel=127
key=E4
lovel=1
offset=348
sample=Tenors_Ah_staccatissimo_FF_E4_RR2.opus
</region>

<region>
hivel=127
key=F#3
lovel=1
offset=1037
sample=Tenors_Ah_staccatissimo_FF_F#3_RR2.opus
</region>

<region>
hivel=127
key=F#4
lovel=1
offset=186
sample=Tenors_Ah_staccatissimo_FF_F#4_RR2.opus
</region>

<region>
hivel=127
key=F3
lovel=1
offset=316
sample=Tenors_Ah_staccatissimo_FF_F3_RR2.opus
</region>

<region>
hivel=127
key=F4
lovel=1
offset=399
sample=Tenors_Ah_staccatissimo_FF_F4_RR2.opus
</region>

<region>
hivel=127
key=G#3
lovel=1
sample=Tenors_Ah_staccatissimo_FF_G#3_RR2.opus
</region>

<region>
hivel=127
key=G#4
lovel=1
offset=593
sample=Tenors_Ah_staccatissimo_FF_G#4_RR2.opus
</region>

<region>
hivel=127
key=G3
lovel=1
offset=714
sample=Tenors_Ah_staccatissimo_FF_G3_RR2.opus
</region>

<region>
hivel=127
key=G4
lovel=1
offset=380
sample=Tenors_Ah_staccatissimo_FF_G4_RR2.opus
</region>

<region>
hivel=127
key=C#3
lovel=1
offset=372
sample=Tenors_Ah_staccatissimo_FF_C#3_RR2.opus
</region>

<region>
hikey=C3
hivel=127
lokey=F2
lovel=1
offset=503
pitch_keycenter=C3
sample=Tenors_Ah_staccatissimo_FF_C3_RR2.opus
</region>
</group>

<group>
group_label=RR3_65-127
seq_length=4
seq_position=3
xfin_hicc1=127
xfin_locc1=65
xfout_hicc1=127
xfout_locc1=127

<region>
hivel=127
key=A#3
lovel=1
offset=1516
sample=Tenors_Ah_staccatissimo_FF_A#3_RR3.opus
</region>

<region>
hikey=E5
hivel=127
lokey=A#4
lovel=1
pitch_keycenter=A#4
sample=Tenors_Ah_staccatissimo_FF_A#4_RR3.opus
</region>

<region>
hivel=127
key=A3
lovel=1
sample=Tenors_Ah_staccatissimo_FF_A3_RR3.opus
</region>

<region>
hivel=127
key=A4
lovel=1
sample=Tenors_Ah_staccatissimo_FF_A4_RR3.opus
</region>

<region>
hivel=127
key=B3
lovel=1
offset=568
sample=Tenors_Ah_staccatissimo_FF_B3_RR3.opus
</region>

<region>
hivel=127
key=C#4
lovel=1
offset=1227
sample=Tenors_Ah_staccatissimo_FF_C#4_RR3.opus
</region>

<region>
hikey=C4
hivel=127
lokey=C4
lovel=1
offset=311
sample=Tenors_Ah_staccatissimo_FF_C4_RR3.opus
</region>

<region>
hivel=127
key=D#3
lovel=1
offset=478
sample=Tenors_Ah_staccatissimo_FF_D#3_RR3.opus
</region>

<region>
hivel=127
key=D#4
lovel=1
sample=Tenors_Ah_staccatissimo_FF_D#4_RR3.opus
</region>

<region>
hivel=127
key=D3
lovel=1
offset=210
sample=Tenors_Ah_staccatissimo_FF_D3_RR3.opus
</region>

<region>
hivel=127
key=D4
lovel=1
sample=Tenors_Ah_staccatissimo_FF_D4_RR3.opus
</region>

<region>
hivel=127
key=E3
lovel=1
sample=Tenors_Ah_staccatissimo_FF_E3_RR3.opus
</region>

<region>
hivel=127
key=E4
lovel=1
sample=Tenors_Ah_staccatissimo_FF_E4_RR3.opus
</region>

<region>
hivel=127
key=F#3
lovel=1
sample=Tenors_Ah_staccatissimo_FF_F#3_RR3.opus
</region>

<region>
hivel=127
key=F#4
lovel=1
offset=492
sample=Tenors_Ah_staccatissimo_FF_F#4_RR3.opus
</region>

<region>
hivel=127
key=F3
lovel=1
offset=50
sample=Tenors_Ah_staccatissimo_FF_F3_RR3.opus
</region>

<region>
hivel=127
key=F4
lovel=1
offset=583
sample=Tenors_Ah_staccatissimo_FF_F4_RR3.opus
</region>

<region>
hivel=127
key=G#3
lovel=1
sample=Tenors_Ah_staccatissimo_FF_G#3_RR3.opus
</region>

<region>
hivel=127
key=G#4
lovel=1
offset=941
sample=Tenors_Ah_staccatissimo_FF_G#4_RR3.opus
</region>

<region>
hivel=127
key=G3
lovel=1
sample=Tenors_Ah_staccatissimo_FF_G3_RR3.opus
</region>

<region>
hivel=127
key=G4
lovel=1
offset=771
sample=Tenors_Ah_staccatissimo_FF_G4_RR3.opus
</region>

<region>
hivel=127
key=C#3
lovel=1
offset=704
sample=Tenors_Ah_staccatissimo_FF_C#3_RR3.opus
</region>

<region>
hikey=C3
hivel=127
lokey=F2
lovel=1
offset=543
pitch_keycenter=C3
sample=Tenors_Ah_staccatissimo_FF_C3_RR3.opus
</region>
</group>

<group>
group_label=RR4_65-127
seq_length=4
seq_position=4
xfin_hicc1=127
xfin_locc1=65
xfout_hicc1=127
xfout_locc1=127

<region>
hivel=127
key=A#3
lovel=1
sample=Tenors_Ah_staccatissimo_FF_A#3_RR4.opus
</region>

<region>
hikey=E5
hivel=127
lokey=A#4
lovel=1
pitch_keycenter=A#4
sample=Tenors_Ah_staccatissimo_FF_A#4_RR4.opus
</region>

<region>
hivel=127
key=A3
lovel=1
sample=Tenors_Ah_staccatissimo_FF_A3_RR4.opus
</region>

<region>
hivel=127
key=A4
lovel=1
sample=Tenors_Ah_staccatissimo_FF_A4_RR4.opus
</region>

<region>
hivel=127
key=B3
lovel=1
sample=Tenors_Ah_staccatissimo_FF_B3_RR4.opus
</region>

<region>
hivel=127
key=C#4
lovel=1
offset=916
sample=Tenors_Ah_staccatissimo_FF_C#4_RR4.opus
</region>

<region>
hikey=C4
hivel=127
lokey=C4
lovel=1
offset=736
sample=Tenors_Ah_staccatissimo_FF_C4_RR4.opus
</region>

<region>
hivel=127
key=D#3
lovel=1
offset=572
sample=Tenors_Ah_staccatissimo_FF_D#3_RR4.opus
</region>

<region>
hivel=127
key=D#4
lovel=1
sample=Tenors_Ah_staccatissimo_FF_D#4_RR4.opus
</region>

<region>
hivel=127
key=D3
lovel=1
offset=794
sample=Tenors_Ah_staccatissimo_FF_D3_RR4.opus
</region>

<region>
hivel=127
key=D4
lovel=1
sample=Tenors_Ah_staccatissimo_FF_D4_RR4.opus
</region>

<region>
hivel=127
key=E3
lovel=1
sample=Tenors_Ah_staccatissimo_FF_E3_RR4.opus
</region>

<region>
hivel=127
key=E4
lovel=1
sample=Tenors_Ah_staccatissimo_FF_E4_RR4.opus
</region>

<region>
hivel=127
key=F#3
lovel=1
sample=Tenors_Ah_staccatissimo_FF_F#3_RR4.opus
</region>

<region>
hivel=127
key=F#4
lovel=1
offset=265
sample=Tenors_Ah_staccatissimo_FF_F#4_RR4.opus
</region>

<region>
hivel=127
key=F3
lovel=1
sample=Tenors_Ah_staccatissimo_FF_F3_RR4.opus
</region>

<region>
hivel=127
key=F4
lovel=1
offset=908
sample=Tenors_Ah_staccatissimo_FF_F4_RR4.opus
</region>

<region>
hivel=127
key=G#3
lovel=1
sample=Tenors_Ah_staccatissimo_FF_G#3_RR4.opus
</region>

<region>
hivel=127
key=G#4
lovel=1
sample=Tenors_Ah_staccatissimo_FF_G#4_RR4.opus
</region>

<region>
hivel=127
key=G3
lovel=1
sample=Tenors_Ah_staccatissimo_FF_G3_RR4.opus
</region>

<region>
hivel=127
key=G4
lovel=1
offset=575
sample=Tenors_Ah_staccatissimo_FF_G4_RR4.opus
</region>

<region>
hivel=127
key=C#3
lovel=1
offset=643
sample=Tenors_Ah_staccatissimo_FF_C#3_RR4.opus
</region>

<region>
hikey=C3
hivel=127
lokey=F2
lovel=1
offset=183
pitch_keycenter=C3
sample=Tenors_Ah_staccatissimo_FF_C3_RR4.opus
</region>
</group>